<mxfile host="app.diagrams.net" modified="2023-01-11T14:20:29.229Z" agent="5.0 (Macintosh; Intel Mac OS X 10_15_7) AppleWebKit/537.36 (KHTML, like Gecko) Chrome/94.0.4606.61 Safari/537.36" version="20.8.1" etag="TYw4j-CPrptusWnVVIy8" type="github">
  <diagram id="ENm0vbvkBLyyz-zzyFFD" name="Сторінка-1">
    <mxGraphModel dx="942" dy="476" grid="1" gridSize="10" guides="1" tooltips="1" connect="1" arrows="1" fold="1" page="1" pageScale="1" pageWidth="827" pageHeight="1169" math="0" shadow="0">
      <root>
        <mxCell id="0" />
        <mxCell id="1" parent="0" />
        <mxCell id="Adf-e0MshoNqVCd0cmBs-1" value="&lt;b&gt;&lt;font style=&quot;font-size: 14px;&quot;&gt;Account&lt;/font&gt;&lt;/b&gt;" style="rounded=0;whiteSpace=wrap;html=1;strokeWidth=2;fillColor=#dae8fc;strokeColor=#6c8ebf;" vertex="1" parent="1">
          <mxGeometry x="320" y="220" width="120" height="60" as="geometry" />
        </mxCell>
        <mxCell id="Adf-e0MshoNqVCd0cmBs-5" value="" style="strokeWidth=2;html=1;shape=mxgraph.flowchart.annotation_2;align=left;labelPosition=right;pointerEvents=1;direction=south;" vertex="1" parent="1">
          <mxGeometry x="210" y="280" width="340" height="70" as="geometry" />
        </mxCell>
        <mxCell id="Adf-e0MshoNqVCd0cmBs-6" value="" style="line;strokeWidth=2;direction=south;html=1;" vertex="1" parent="1">
          <mxGeometry x="375" y="290" width="10" height="70" as="geometry" />
        </mxCell>
        <mxCell id="Adf-e0MshoNqVCd0cmBs-8" value="&lt;b&gt;Search AC&lt;/b&gt;" style="shape=ext;double=1;rounded=1;whiteSpace=wrap;html=1;" vertex="1" parent="1">
          <mxGeometry x="100" y="350" width="150" height="30" as="geometry" />
        </mxCell>
        <mxCell id="Adf-e0MshoNqVCd0cmBs-9" value="&lt;b&gt;Thematic AC&lt;/b&gt;" style="shape=ext;double=1;rounded=1;whiteSpace=wrap;html=1;" vertex="1" parent="1">
          <mxGeometry x="300" y="350" width="150" height="30" as="geometry" />
        </mxCell>
        <mxCell id="Adf-e0MshoNqVCd0cmBs-10" value="&lt;b&gt;Retargeting&lt;/b&gt;" style="shape=ext;double=1;rounded=1;whiteSpace=wrap;html=1;" vertex="1" parent="1">
          <mxGeometry x="500" y="350" width="150" height="30" as="geometry" />
        </mxCell>
        <mxCell id="Adf-e0MshoNqVCd0cmBs-11" value="&lt;p style=&quot;margin: 0px; font-variant-numeric: normal; font-variant-east-asian: normal; font-stretch: normal; font-size: 13px; line-height: normal; font-family: &amp;quot;Helvetica Neue&amp;quot;; text-align: start;&quot; class=&quot;p1&quot;&gt;Generic inquiries&lt;/p&gt;" style="rounded=1;whiteSpace=wrap;html=1;strokeWidth=2;fontSize=14;" vertex="1" parent="1">
          <mxGeometry x="110" y="410" width="130" height="30" as="geometry" />
        </mxCell>
        <mxCell id="Adf-e0MshoNqVCd0cmBs-12" value="&lt;p style=&quot;margin: 0px; font-variant-numeric: normal; font-variant-east-asian: normal; font-stretch: normal; font-size: 13px; line-height: normal; font-family: &amp;quot;Helvetica Neue&amp;quot;; text-align: start;&quot; class=&quot;p1&quot;&gt;Brand inquiries&lt;/p&gt;" style="rounded=1;whiteSpace=wrap;html=1;strokeWidth=2;fontSize=14;" vertex="1" parent="1">
          <mxGeometry x="110" y="470" width="130" height="30" as="geometry" />
        </mxCell>
        <mxCell id="Adf-e0MshoNqVCd0cmBs-13" value="&lt;p style=&quot;margin: 0px; font-variant-numeric: normal; font-variant-east-asian: normal; font-stretch: normal; font-size: 13px; line-height: normal; font-family: &amp;quot;Helvetica Neue&amp;quot;; text-align: start;&quot; class=&quot;p1&quot;&gt;Competitor inquiries&lt;/p&gt;" style="rounded=1;whiteSpace=wrap;html=1;strokeWidth=2;fontSize=14;" vertex="1" parent="1">
          <mxGeometry x="110" y="520" width="130" height="30" as="geometry" />
        </mxCell>
        <mxCell id="Adf-e0MshoNqVCd0cmBs-14" value="&lt;p style=&quot;margin: 0px; font-variant-numeric: normal; font-variant-east-asian: normal; font-stretch: normal; font-size: 13px; line-height: normal; font-family: &amp;quot;Helvetica Neue&amp;quot;; text-align: start;&quot; class=&quot;p1&quot;&gt;Competitor inquiries&lt;/p&gt;" style="rounded=1;whiteSpace=wrap;html=1;strokeWidth=2;fontSize=14;" vertex="1" parent="1">
          <mxGeometry x="310" y="520" width="130" height="30" as="geometry" />
        </mxCell>
        <mxCell id="Adf-e0MshoNqVCd0cmBs-15" value="&lt;p style=&quot;margin: 0px; font-variant-numeric: normal; font-variant-east-asian: normal; font-stretch: normal; font-size: 13px; line-height: normal; font-family: &amp;quot;Helvetica Neue&amp;quot;; text-align: start;&quot; class=&quot;p1&quot;&gt;Brand inquiries&lt;/p&gt;" style="rounded=1;whiteSpace=wrap;html=1;strokeWidth=2;fontSize=14;" vertex="1" parent="1">
          <mxGeometry x="310" y="470" width="130" height="30" as="geometry" />
        </mxCell>
        <mxCell id="Adf-e0MshoNqVCd0cmBs-16" value="&lt;span style=&quot;font-family: &amp;quot;Helvetica Neue&amp;quot;; font-size: 13px; text-align: start;&quot;&gt;Generic inquiries&lt;/span&gt;" style="rounded=1;whiteSpace=wrap;html=1;strokeWidth=2;fontSize=14;" vertex="1" parent="1">
          <mxGeometry x="310" y="410" width="130" height="30" as="geometry" />
        </mxCell>
        <mxCell id="Adf-e0MshoNqVCd0cmBs-17" value="&lt;p style=&quot;margin: 0px; font-variant-numeric: normal; font-variant-east-asian: normal; font-stretch: normal; font-size: 13px; line-height: normal; font-family: &amp;quot;Helvetica Neue&amp;quot;; text-align: start;&quot; class=&quot;p1&quot;&gt;Generate scenarios&lt;/p&gt;" style="rounded=1;whiteSpace=wrap;html=1;strokeWidth=2;fontSize=14;" vertex="1" parent="1">
          <mxGeometry x="510" y="409" width="130" height="30" as="geometry" />
        </mxCell>
        <mxCell id="Adf-e0MshoNqVCd0cmBs-18" value="" style="endArrow=none;html=1;rounded=0;fontSize=14;entryX=0.5;entryY=1;entryDx=0;entryDy=0;" edge="1" parent="1" source="Adf-e0MshoNqVCd0cmBs-11" target="Adf-e0MshoNqVCd0cmBs-8">
          <mxGeometry width="50" height="50" relative="1" as="geometry">
            <mxPoint x="140" y="440" as="sourcePoint" />
            <mxPoint x="190" y="390" as="targetPoint" />
          </mxGeometry>
        </mxCell>
        <mxCell id="Adf-e0MshoNqVCd0cmBs-20" value="" style="endArrow=none;html=1;rounded=0;fontSize=14;entryX=0.5;entryY=1;entryDx=0;entryDy=0;exitX=0.5;exitY=0;exitDx=0;exitDy=0;" edge="1" parent="1" source="Adf-e0MshoNqVCd0cmBs-12" target="Adf-e0MshoNqVCd0cmBs-11">
          <mxGeometry width="50" height="50" relative="1" as="geometry">
            <mxPoint x="195" y="430" as="sourcePoint" />
            <mxPoint x="195" y="400" as="targetPoint" />
          </mxGeometry>
        </mxCell>
        <mxCell id="Adf-e0MshoNqVCd0cmBs-21" value="" style="endArrow=none;html=1;rounded=0;fontSize=14;entryX=0.5;entryY=1;entryDx=0;entryDy=0;" edge="1" parent="1" source="Adf-e0MshoNqVCd0cmBs-13" target="Adf-e0MshoNqVCd0cmBs-12">
          <mxGeometry width="50" height="50" relative="1" as="geometry">
            <mxPoint x="205" y="440" as="sourcePoint" />
            <mxPoint x="205" y="410" as="targetPoint" />
          </mxGeometry>
        </mxCell>
        <mxCell id="Adf-e0MshoNqVCd0cmBs-22" value="" style="endArrow=none;html=1;rounded=0;fontSize=14;entryX=0.5;entryY=0;entryDx=0;entryDy=0;exitX=0.5;exitY=1;exitDx=0;exitDy=0;" edge="1" parent="1" source="Adf-e0MshoNqVCd0cmBs-16" target="Adf-e0MshoNqVCd0cmBs-15">
          <mxGeometry width="50" height="50" relative="1" as="geometry">
            <mxPoint x="215" y="450" as="sourcePoint" />
            <mxPoint x="215" y="420" as="targetPoint" />
          </mxGeometry>
        </mxCell>
        <mxCell id="Adf-e0MshoNqVCd0cmBs-23" value="" style="endArrow=none;html=1;rounded=0;fontSize=14;entryX=0.5;entryY=0;entryDx=0;entryDy=0;exitX=0.5;exitY=1;exitDx=0;exitDy=0;" edge="1" parent="1" source="Adf-e0MshoNqVCd0cmBs-9" target="Adf-e0MshoNqVCd0cmBs-16">
          <mxGeometry width="50" height="50" relative="1" as="geometry">
            <mxPoint x="225" y="460" as="sourcePoint" />
            <mxPoint x="225" y="430" as="targetPoint" />
          </mxGeometry>
        </mxCell>
        <mxCell id="Adf-e0MshoNqVCd0cmBs-24" value="" style="endArrow=none;html=1;rounded=0;fontSize=14;exitX=0.5;exitY=0;exitDx=0;exitDy=0;" edge="1" parent="1" source="Adf-e0MshoNqVCd0cmBs-14" target="Adf-e0MshoNqVCd0cmBs-15">
          <mxGeometry width="50" height="50" relative="1" as="geometry">
            <mxPoint x="235" y="470" as="sourcePoint" />
            <mxPoint x="235" y="440" as="targetPoint" />
          </mxGeometry>
        </mxCell>
        <mxCell id="Adf-e0MshoNqVCd0cmBs-25" value="" style="endArrow=none;html=1;rounded=0;fontSize=14;entryX=0.5;entryY=1;entryDx=0;entryDy=0;" edge="1" parent="1" source="Adf-e0MshoNqVCd0cmBs-17" target="Adf-e0MshoNqVCd0cmBs-10">
          <mxGeometry width="50" height="50" relative="1" as="geometry">
            <mxPoint x="245" y="480" as="sourcePoint" />
            <mxPoint x="245" y="450" as="targetPoint" />
          </mxGeometry>
        </mxCell>
      </root>
    </mxGraphModel>
  </diagram>
</mxfile>
